<?xml version="1.0" encoding="utf-8"?>
<svg version="1.1" xmlns="http://www.w3.org/2000/svg" viewBox="0 0 704.64 199.01">
<style type="text/css">
	.st0{fill:#0083a1;}
	.st1{fill-rule:evenodd;clip-rule:evenodd;fill:#0083a1;}
</style>
<path class="st0" d="M262.82,57.41c-13.77,0-22.1,9.52-22.1,23.97c0,15.22,8.42,24.06,22.1,24.06c13.77,0,22.1-9.52,22.1-23.97
	C284.92,66.25,276.59,57.41,262.82,57.41z M262.82,67.27c5.44,0,8.16,4.17,8.16,14.2c0,9.78-2.72,14.11-8.16,14.11
	c-5.44,0-8.16-4.17-8.16-14.2C254.66,71.61,257.38,67.27,262.82,67.27z"/>
<path class="st0" d="M318.41,57.41c-4.42,0-9.27,1.79-13.01,6.46l-0.68-5.02H292.9v64.01l13.43-1.45v-20.66
	c2.81,3.15,6.55,4.68,10.97,4.68c11.14,0,17.94-10.2,17.94-24.14C335.24,66.68,330.05,57.41,318.41,57.41z M313.22,95.58
	c-2.81,0-5.02-1.28-6.89-4V72.54c1.96-3.32,4.68-5.27,7.82-5.27c4.42,0,7.14,2.98,7.14,14.2C321.3,91.59,318.24,95.58,313.22,95.58z
	"/>
<path class="st0" d="M383.01,80.54c0-14.62-7.91-23.12-20.83-23.12c-13.69,0-21.08,10.71-21.08,24.23c0,14.11,7.65,23.8,22.7,23.8
	c7.31,0,13.09-2.72,17.6-6.29l-5.53-7.48c-3.91,2.72-7.14,4-10.8,4c-5.53,0-9.35-2.21-10.29-10.29h27.97
	C382.92,84.02,383.01,81.98,383.01,80.54z M369.83,77.31h-15.05c0.6-8.08,3.23-10.97,7.74-10.97c5.36,0,7.23,4.25,7.31,10.37V77.31z
	"/>
<path class="st0" d="M417,57.41c-5.61,0-9.95,2.3-13.77,6.8l-0.93-5.36h-11.73V104H404V73.14c2.38-3.74,4.85-5.87,7.82-5.87
	c2.64,0,4.25,1.28,4.25,6.04V104h13.43V71.01C429.5,62.43,424.82,57.41,417,57.41z"/>
<path class="st0" d="M475.65,57.41c-11.39,0-18.45,6.04-18.45,13.77c0,6.97,4.42,11.56,13.35,14.11c8.16,2.3,9.52,3.23,9.52,6.29
	c0,2.72-2.47,4.25-6.55,4.25c-4.42,0-8.59-1.79-11.99-4.42L455,98.73c4.42,4,11.05,6.72,18.87,6.72c11.22,0,20.06-5.53,20.06-14.88
	c0-8.08-5.02-11.82-13.94-14.37c-8.08-2.38-9.27-3.4-9.27-5.78c0-2.04,1.79-3.4,5.44-3.4c3.91,0,7.65,1.28,11.14,3.49l4.93-7.57
	C488.06,59.54,482.2,57.41,475.65,57.41z"/>
<path class="st0" d="M540.17,80.54c0-14.62-7.91-23.12-20.83-23.12c-13.69,0-21.08,10.71-21.08,24.23c0,14.11,7.65,23.8,22.7,23.8
	c7.31,0,13.09-2.72,17.6-6.29l-5.53-7.48c-3.91,2.72-7.14,4-10.8,4c-5.53,0-9.35-2.21-10.29-10.29h27.97
	C540.08,84.02,540.17,81.98,540.17,80.54z M526.99,77.31h-15.05c0.6-8.08,3.23-10.97,7.74-10.97c5.36,0,7.23,4.25,7.31,10.37V77.31z
	"/>
<path class="st0" d="M582.75,90.91V73.4c0-10.46-5.61-15.98-18.7-15.98c-5.1,0-11.31,1.19-17,3.32l3.06,8.84
	c4.51-1.53,8.93-2.38,11.82-2.38c5.53,0,7.65,1.62,7.65,6.97v1.96h-4.59c-13.69,0-21.17,5.36-21.17,15.22
	c0,8.25,5.7,14.11,14.71,14.11c5.36,0,10.37-1.79,13.6-6.8c2.04,4.51,5.53,6.12,10.88,6.55l2.81-8.76
	C583.69,95.67,582.75,94.39,582.75,90.91z M562.44,95.84c-3.32,0-5.27-2.13-5.27-5.7c0-4.51,2.98-6.63,9.1-6.63h3.32v7.99
	C567.96,94.22,565.58,95.84,562.44,95.84z"/>
<path class="st0" d="M617.94,57.58c-5.19,0-9.61,3.74-11.65,10.03l-1.11-8.76h-11.73V104h13.43V81.64
	c1.45-6.89,3.74-11.05,9.35-11.05c1.53,0,2.64,0.25,4.08,0.6l2.13-13.01C621,57.75,619.64,57.58,617.94,57.58z"/>
<path class="st0" d="M644.54,57.41c-13.52,0-22.1,10.03-22.1,24.4c0,14.28,8.5,23.63,22.36,23.63c6.21,0,11.05-2.04,15.22-5.36
	l-5.87-8.33c-3.23,2.04-5.44,3.06-8.67,3.06c-5.36,0-8.93-3.06-8.93-13.09c0-10.12,3.32-14.03,9.1-14.03c3.06,0,5.7,1.02,8.59,3.23
	l5.78-7.99C655.68,59.28,650.83,57.41,644.54,57.41z"/>
<path class="st0" d="M692.14,57.41c-5.27,0-9.35,2.13-13.01,6.29V39.56l-13.43,1.36V104h13.43V73.05c2.38-3.66,4.85-5.78,7.82-5.78
	c2.55,0,4.25,1.28,4.25,6.04V104h13.43V71.01C704.64,62.43,699.96,57.41,692.14,57.41z"/>
<path class="st0" d="M255.34,133.14c1.51,0,3.25,0.28,5.15,1.12l1.62-3.75c-2.35-1.01-4.26-1.51-7.06-1.51
	c-5.99,0-9.24,3.53-9.24,8.46v4.03h-5.26v3.98h5.26V171h5.15v-25.54h6.61l0.56-3.98h-7.17v-4.09
	C250.97,134.54,252.09,133.14,255.34,133.14z"/>
<path class="st0" d="M274.6,140.81c-8.4,0-13.22,6.33-13.22,15.46c0,9.35,4.76,15.4,13.16,15.4c8.34,0,13.16-6.33,13.16-15.46
	C287.71,146.86,283,140.81,274.6,140.81z M274.6,144.96c4.87,0,7.56,3.58,7.56,11.26c0,7.73-2.69,11.31-7.62,11.31
	c-4.93,0-7.62-3.58-7.62-11.26C266.93,148.54,269.67,144.96,274.6,144.96z"/>
<path class="st0" d="M318.17,141.49h-5.15v21.06c-1.79,2.97-4.2,5.1-7.39,5.1c-3.19,0-4.54-1.51-4.54-5.54v-20.61h-5.15v21.17
	c0,5.77,3.08,9.02,8.23,9.02c4.2,0,6.94-1.68,9.18-5.26l0.39,4.59h4.42V141.49z"/>
<path class="st0" d="M342.7,140.81c-3.86,0-7,2.02-9.02,5.04l-0.45-4.37h-4.42V171h5.15v-20.94c1.96-3.14,4.2-5.21,7.5-5.21
	c2.86,0,4.65,1.29,4.65,5.71V171h5.15v-21.17C351.26,144.23,348.13,140.81,342.7,140.81z"/>
<path class="st0" d="M379.32,129v15.46c-1.96-2.07-4.48-3.64-7.95-3.64c-7.22,0-11.59,6.55-11.59,15.57
	c0,9.18,3.98,15.29,11.14,15.29c3.64,0,6.61-1.79,8.51-4.76l0.5,4.09h4.54v-41.38L379.32,129z M372.04,167.58
	c-4.26,0-6.72-3.53-6.72-11.31c0-7.67,2.74-11.37,7.17-11.37c2.91,0,4.98,1.51,6.83,3.86v14.45
	C377.36,165.96,375.34,167.58,372.04,167.58z"/>
<path class="st0" d="M414.99,164.11v-13.5c0-6.16-3.25-9.8-10.36-9.8c-3.3,0-6.55,0.67-10.19,2.02l1.29,3.75
	c3.02-1.01,5.77-1.57,7.95-1.57c4.09,0,6.16,1.57,6.16,5.82v2.18h-4.54c-8.23,0-12.99,3.42-12.99,9.74c0,5.26,3.53,8.9,9.41,8.9
	c3.58,0,6.72-1.34,8.79-4.42c0.9,2.91,2.8,4.09,5.77,4.42l1.18-3.58C415.94,167.53,414.99,166.69,414.99,164.11z M402.9,167.81
	c-3.36,0-5.1-1.85-5.1-5.32c0-4.03,2.74-6.05,8.18-6.05h3.86v6.78C408.16,166.29,405.92,167.81,402.9,167.81z"/>
<path class="st0" d="M438.51,166.24c-1.46,0.78-2.63,1.18-3.92,1.18c-2.58,0-3.53-1.4-3.53-4.37v-17.58h6.44l0.56-3.98h-7v-7.28
	l-5.15,0.62v6.66h-5.15v3.98h5.15v17.81c0,5.49,2.97,8.4,7.95,8.4c2.52,0,4.65-0.67,6.61-2.02L438.51,166.24z"/>
<path class="st0" d="M448.31,127.32c-2.13,0-3.58,1.51-3.58,3.53c0,1.96,1.46,3.47,3.58,3.47c2.18,0,3.64-1.51,3.64-3.47
	C451.95,128.83,450.5,127.32,448.31,127.32z M450.94,141.49h-5.15V171h5.15V141.49z"/>
<path class="st0" d="M472.67,140.81c-8.4,0-13.22,6.33-13.22,15.46c0,9.35,4.76,15.4,13.16,15.4c8.34,0,13.16-6.33,13.16-15.46
	C485.78,146.86,481.07,140.81,472.67,140.81z M472.67,144.96c4.87,0,7.56,3.58,7.56,11.26c0,7.73-2.69,11.31-7.62,11.31
	s-7.62-3.58-7.62-11.26C465,148.54,467.74,144.96,472.67,144.96z"/>
<path class="st0" d="M508.18,140.81c-3.86,0-7,2.02-9.02,5.04l-0.45-4.37h-4.42V171h5.15v-20.94c1.96-3.14,4.2-5.21,7.5-5.21
	c2.86,0,4.65,1.29,4.65,5.71V171h5.15v-21.17C516.74,144.23,513.61,140.81,508.18,140.81z"/>
<path class="st1" d="M175.76,61.67c0.46-5.53,6.99-8.95,12.1-6.92c0.71,0.28,0.96,0.85,1.25,1.44c3.61,7.37,6.24,15.07,7.91,23.42
	c-7.24,0-14.24,0-21.37,0C175.65,73.57,175.28,67.59,175.76,61.67z M150.9,65.61c-0.19,4.64-0.03,9.29-0.03,14.18
	c-3.83,0-7.37,0-11.13,0c0,6.85,0,13.45,0,20.39c3.62,0,7.23,0,11.13,0c0,1.29,0,2.26,0,3.23c0,26.15-0.02,52.3,0.05,78.45
	c0.01,1.97-0.4,3.19-2.21,4.26c-41.3,24.23-97.67,13.35-126.94-24.56c-0.46-0.6-0.84-1.25-1.44-2.17
	c11.79-3.81,20.84-10.7,26.29-21.74c4.12-8.35,5.08-17.2,3.32-26.32c-3.89-20.21-19.28-31.1-47.1-33.38c4-24.94,25.5-60,65.92-73.08
	c40.37-13.06,81.98,1.23,105.75,29.54c-5.78,1.3-11.05,2.92-15.16,6.97C152.55,48.08,151.27,56.72,150.9,65.61z M131.12,132.14
	c-0.63-9.69-6.77-15.07-15.25-18.26c-3.21-1.21-6.53-2.18-9.86-3c-5.17-1.26-10.43-2.19-15.6-3.47c-2.4-0.59-4.28-2.11-4.15-4.92
	c0.13-2.71,1.99-4.11,4.39-4.83c3.59-1.07,7.24-0.95,10.91-0.48c8.66,1.1,16.82,3.81,25.17,8.11c0-6.5-0.11-12.38,0.06-18.25
	c0.06-2.19-0.81-3.08-2.71-3.82c-10.1-3.94-20.57-5.57-31.35-5.02c-8.25,0.42-15.95,2.62-22.61,7.83
	c-10.87,8.53-13.75,29.72,4.19,37.65c2.95,1.3,5.93,2.52,9.06,3.26c5.94,1.4,11.93,2.6,17.87,4.01c2.86,0.68,5.27,2.04,5.11,5.57
	c-0.16,3.42-2.5,4.74-5.42,5.38c-1.29,0.28-2.63,0.39-3.96,0.45c-6.76,0.31-13.23-1.15-19.64-3.14c-4.54-1.41-8.76-3.57-13.27-5.68
	c0,6.35,0.09,12.35-0.05,18.35c-0.05,2.08,0.56,3.11,2.55,3.92c9.84,3.97,20.08,5.65,30.62,5.44c7.86-0.15,15.48-1.67,22.24-5.98
	C127.87,149.9,131.77,142.07,131.12,132.14z M25.94,115.7c1.96,12.21-5.35,22.62-17.24,24.21c-3.65-7.81-6.03-16.08-7.36-24.63
	c-0.65-4.15-0.83-8.37-1.31-12.55c-0.23-2.06,0.51-2.92,2.62-3.28C13.77,97.57,24.18,104.77,25.94,115.7z M175.56,162.65
	c0-20.68,0-41.35,0-62.24c7.71,0,15.33,0,23.44,0C198.69,123.97,191.01,144.73,175.56,162.65z"/>
</svg>
